<svg xmlns="http://www.w3.org/2000/svg"
    xmlns:xlink="http://www.w3.org/1999/xlink" width="580" height="525">
    <g fill="none" fill-rule="evenodd">
        <path fill="#FAFAFA" stroke="#E5E9EA" d="M16.208 16.207h230.286v202.586H16.208z"/>
        <path fill="#E5E9EA" d="M16.208 117.5h230.286v1H16.208zM16.208 136.493h230.286v1H16.208zM16.208 155.485h230.286v1H16.208zM16.208 174.477h230.286v1H16.208zM16.208 41.53h230.286v1H16.208zM16.208 22.538h230.286v1H16.208zM16.208 60.523h230.286v1H16.208zM16.208 79.515h230.286v1H16.208zM16.208 98.508h230.286v1H16.208zM16.208 193.47h230.286v1H16.208zM16.208 212.462h230.286v1H16.208z"/>
        <path fill="#242D52" d="M22.286 117.5h31.065v45.647a5 5 0 01-5 5H27.286a5 5 0 01-5-5V117.5z"/>
        <path fill="#F3603C" d="M22.286 117.5h31.065v32.985a5 5 0 01-5 5H27.286a5 5 0 01-5-5V117.5zM69.558 117.234h31.065V82.658a5 5 0 00-5-5H74.558a5 5 0 00-5 5v34.576z"/>
        <path fill="#242D52" d="M69.558 117.234h31.065v51.99a5 5 0 01-5 5H74.558a5 5 0 01-5-5v-51.99zM162.078 117.5h31.065V46.193a5 5 0 00-5-5h-21.065a5 5 0 00-5 5V117.5z"/>
        <path fill="#F3603C" d="M162.078 117.5h31.065V65.27a5 5 0 00-5-5h-21.065a5 5 0 00-5 5v52.23z"/>
        <g>
            <path fill="#242D52" d="M209.351 117.5h31.065v58.477a5 5 0 01-5 5H214.35a5 5 0 01-5-5V117.5z"/>
            <path fill="#F3603C" d="M209.351 117.5h31.065v45.782a5 5 0 01-5 5H214.35a5 5 0 01-5-5V117.5z"/>
        </g>
        <g>
            <path fill="#F3603C" d="M115.481 117.5h31.065v90.216a5 5 0 01-5 5H120.48a5 5 0 01-5-5V117.5z"/>
            <path fill="#242D52" d="M115.481 117.5h31.065v33.086a5 5 0 01-5 5H120.48a5 5 0 01-5-5V117.5z"/>
        </g>
    </g>
</svg>